# xmcd CD database file
#
# Track frame offsets:
#	150
#	15499
#	32332
#	45919
#	60892
#	76515
#	91423
#	106669
#	118548
#	145531
#	170795
#	193965
#	214654
#	253499
#
# Disc length: 3892 seconds
#
# Revision: 1
# Processed by: cddbd v1.5.2PL0 Copyright (c) Steve Scherf et al.
# Submitted via: CDex 1.81
#
DISCID=a80f320e
DTITLE=Lou Donaldson - Lou's Blues
DYEAR=1900
DGENRE=Jazz
TTITLE0=Roccus
TTITLE1=Lou's Blues
TTITLE2=Cheek to cheek
TTITLE3=The things we did last summer
TTITLE4=Sweet juice
TTITLE5=Down home
TTITLE6=The best things in life are free
TTITLE7=If I Love again
TTITLE8=Caracas
TTITLE9=The stroller
TTITLE10=Moe's bluff
TTITLE11=After you've gone
TTITLE12=Blues
TTITLE13=Split kick
EXTD=
EXTT0=
EXTT1=
EXTT2=
EXTT3=
EXTT4=
EXTT5=
EXTT6=
EXTT7=
EXTT8=
EXTT9=
EXTT10=
EXTT11=
EXTT12=
EXTT13=
PLAYORDER=
